<svg width="64" height="64" viewBox="0 0 64 64" fill="none" xmlns="http://www.w3.org/2000/svg">
<path d="M42.7073 34.1215L42.7073 34.1215C44.1376 32.7022 44.1377 30.4031 42.7073 28.9838L29.4568 15.8369C28.0308 14.422 25.727 14.422 24.3009 15.8369C22.8706 17.2561 22.8706 19.5553 24.3009 20.9745L34.9623 31.5526L24.3008 42.1307L25.0051 42.8406L24.3008 42.1307C22.8704 43.5499 22.8704 45.8491 24.3008 47.2683C25.0128 47.9747 25.9479 48.3289 26.8788 48.3289C27.8099 48.3289 28.7448 47.9747 29.4568 47.2683L42.7073 34.1215ZM1.37793 31.5526C1.37793 14.7136 15.1882 1 32.179 1C49.1698 1 62.9801 14.7136 62.9801 31.5526C62.9801 48.3916 49.1698 62.1052 32.179 62.1052C15.1882 62.1052 1.37793 48.3916 1.37793 31.5526Z" fill="white" stroke="#888888" stroke-width="2"/>
</svg>
