<svg width="63" height="64" viewBox="0 0 63 64" fill="none" xmlns="http://www.w3.org/2000/svg">
<path d="M1 31.5526C1 14.6996 14.6144 1 31.3334 1C48.0523 1 61.6667 14.6996 61.6667 31.5526C61.6667 48.4056 48.0523 62.1052 31.3334 62.1052C14.6144 62.1052 1 48.4056 1 31.5526ZM39.1112 47.2631C40.5193 45.8451 40.5193 43.5539 39.1112 42.1359L28.6014 31.5526L39.1112 20.9693C40.5193 19.5513 40.5193 17.2601 39.1112 15.8421C37.6992 14.4203 35.412 14.4203 34 15.8421L20.9444 28.9891C19.5362 30.4071 19.5362 32.6983 20.9444 34.1163L33.9999 47.2631C34.7031 47.9713 35.6299 48.3289 36.5555 48.3289C37.4813 48.3289 38.4079 47.9713 39.1112 47.2631Z" fill="white" stroke="#888888" stroke-width="2"/>
</svg>
